<svg xmlns="http://www.w3.org/2000/svg" viewBox="0 0 512 512"><circle cx="256" cy="256" r="256" fill="#63cbff"/><g fill="#427a2d"><path d="M512 255.999c0 18.233-1.912 36.028-5.538 53.185h-77.73c-8.579 0-12.873-10.365-6.802-16.436l29.257-29.257c1.954-1.964 2.832-4.378 2.832-6.74 0-4.953-3.835-9.697-9.644-9.697-8.579 0-12.873-10.376-6.802-16.436l22.695-22.695c6.06-6.071 1.766-16.447-6.813-16.447h-1.641c-8.579 0-12.873-10.365-6.813-16.436l37.825-37.815c17.095 32.569 27.376 69.277 28.954 108.231.147 3.5.22 7.011.22 10.543zM83.268 309.184H5.538a257.026 257.026 0 0 1-5.319-63.728c1.578-38.954 11.86-75.661 28.954-108.231l37.825 37.815c6.06 6.071 1.766 16.436-6.813 16.436h-1.64c-8.579 0-12.873 10.376-6.813 16.447l22.695 22.695c1.964 1.964 2.842 4.378 2.842 6.74 0 4.953-3.845 9.697-9.644 9.697-8.579 0-12.873 10.365-6.813 16.436l29.257 29.257c6.072 6.071 1.778 16.436-6.801 16.436z"/></g><path d="M489.556 360.959c-12.184 27.094-28.965 51.681-49.34 72.777H71.784a254.202 254.202 0 0 1-16.771-19.174v-28.891h-19.79a253.21 253.21 0 0 1-12.779-24.712l20.982-20.992c1.964-1.964 2.842-4.368 2.842-6.729 0-4.953-3.845-9.707-9.655-9.707-8.579 0-12.873-10.376-6.802-16.436L52.506 284.4c6.06-6.071 1.766-16.436-6.813-16.436h-1.64c-8.579 0-12.873-10.376-6.813-16.436l54.439-54.439a9.623 9.623 0 0 1 13.615 0l54.439 54.439c6.071 6.06 1.766 16.436-6.813 16.436h-1.641c-8.579 0-12.873 10.365-6.802 16.436l22.695 22.695c1.954 1.954 2.832 4.368 2.832 6.729 0 4.953-3.835 9.707-9.644 9.707-8.579 0-12.873 10.376-6.813 16.436l23.301 23.301 23.301-23.301c6.071-6.06 1.776-16.436-6.802-16.436s-12.873-10.376-6.813-16.436l22.695-22.695c6.071-6.071 1.766-16.436-6.813-16.436h-1.64c-8.579 0-12.873-10.376-6.802-16.436l54.429-54.439c3.762-3.762 9.864-3.762 13.625 0l54.429 54.439c6.071 6.06 1.776 16.436-6.802 16.436h-1.64c-8.579 0-12.884 10.365-6.813 16.436l22.695 22.695c1.954 1.954 2.832 4.368 2.832 6.729 0 4.953-3.835 9.707-9.644 9.707-8.579 0-12.873 10.376-6.802 16.436l24.085 24.085 24.085-24.085c1.954-1.954 2.832-4.368 2.832-6.729 0-4.953-3.835-9.707-9.644-9.707-8.579 0-12.873-10.376-6.813-16.436l22.695-22.695c6.071-6.071 1.776-16.436-6.802-16.436h-1.641c-8.579 0-12.884-10.376-6.813-16.436l54.439-54.439a9.623 9.623 0 0 1 13.615 0l54.439 54.439c6.06 6.06 1.766 16.436-6.813 16.436h-1.641c-8.579 0-12.873 10.365-6.813 16.436l22.695 22.695c1.964 1.964 2.842 4.378 2.842 6.74 0 4.953-3.845 9.697-9.644 9.697-8.579 0-12.884 10.376-6.813 16.436l20.983 20.991z" fill="#4c8e37"/><path d="M512 255.999c0 74.041-31.431 140.737-81.69 187.476a256.734 256.734 0 0 1-28.965 23.28c-41.284 28.536-91.366 45.244-145.345 45.244s-104.061-16.708-145.345-45.244a256.824 256.824 0 0 1-28.965-23.28C31.431 396.736 0 330.04 0 255.999c0-3.532.073-7.043.219-10.543l12.319-12.319c3.751-3.762 9.853-3.762 13.615 0l54.429 54.439c6.071 6.06 1.776 16.436-6.802 16.436h-1.64c-8.579 0-12.873 10.365-6.813 16.436l22.695 22.695c1.964 1.964 2.842 4.368 2.842 6.729 0 4.953-3.845 9.707-9.655 9.707-8.579 0-12.873 10.376-6.802 16.436L98.492 400.1l24.085-24.085c1.954-1.954 2.832-4.368 2.832-6.729 0-4.953-3.835-9.707-9.644-9.707-8.579 0-12.873-10.376-6.813-16.436l22.695-22.695c6.071-6.071 1.776-16.436-6.802-16.436h-1.64c-8.579 0-12.873-10.376-6.813-16.436l54.439-54.439a9.623 9.623 0 0 1 13.615 0l54.439 54.439c6.06 6.06 1.766 16.436-6.813 16.436h-1.641c-8.579 0-12.873 10.365-6.813 16.436l22.695 22.695c1.964 1.964 2.842 4.378 2.842 6.74 0 4.953-3.845 9.697-9.644 9.697-8.579 0-12.884 10.376-6.813 16.436L256 399.317l23.301-23.301c1.964-1.964 2.842-4.368 2.842-6.729 0-4.953-3.845-9.707-9.655-9.707-8.579 0-12.873-10.376-6.802-16.436l22.695-22.695c6.06-6.071 1.766-16.436-6.813-16.436h-1.641c-8.579 0-12.873-10.376-6.813-16.436l54.439-54.439a9.623 9.623 0 0 1 13.615 0l54.439 54.439c6.06 6.06 1.766 16.436-6.813 16.436h-1.64c-8.579 0-12.873 10.365-6.802 16.436l22.695 22.695c1.954 1.954 2.832 4.368 2.832 6.729 0 4.953-3.835 9.707-9.644 9.707-8.579 0-12.873 10.376-6.813 16.436l24.085 24.085 24.085-24.085c1.964-1.964 2.842-4.378 2.842-6.74 0-4.953-3.845-9.697-9.644-9.697-8.579 0-12.884-10.376-6.813-16.436l22.695-22.695c6.06-6.071 1.766-16.436-6.813-16.436h-1.641c-8.579 0-12.873-10.376-6.802-16.436l54.429-54.439c3.762-3.762 9.864-3.762 13.615 0l12.319 12.319c.148 3.5.221 7.011.221 10.543z" fill="#69af54"/><g fill="#bc5410"><path d="M457.731 413.632c-46.864 59.883-119.798 98.367-201.728 98.367s-154.864-38.484-201.728-98.367c7.199-28.003 20.929-53.708 39.612-75.191 31.932-36.728 78.346-61.158 131.427-63.843a607.599 607.599 0 0 1 61.377 0c53.081 2.685 99.495 27.115 131.427 63.843 18.684 21.483 32.414 47.188 39.613 75.191z"/><circle cx="413.78" cy="82.829" r="64.784"/></g><circle cx="409.161" cy="87.448" r="37.012" fill="#91420e"/><circle cx="98.22" cy="82.829" r="64.784" fill="#a5490c"/><circle cx="102.839" cy="87.448" r="37.012" fill="#91420e"/><path d="M418.119 338.441c-31.932-36.728-78.346-61.158-131.427-63.843a598.116 598.116 0 0 0-33.813-.752c.209-.01.408-.01.616-.021-.742.01-1.494.021-2.236.021-1.327.01-2.654.021-3.981.042-1.264.021-2.529.052-3.793.073-1.191.021-2.382.042-3.574.073l-3.96.125c-1.118.042-2.247.073-3.365.115-2.424.094-4.848.199-7.272.324-84.156 4.253-151.531 63.164-171.039 139.034a257.428 257.428 0 0 0 66.456 59.747 277.702 277.702 0 0 1 .867-40.761c3.371-35.248 34.523-60.942 69.499-58.533a6.194 6.194 0 0 1 4.686 2.674l14.286 20.883c2.911 4.256 9.25 4.067 11.903-.354l6.432-10.72c2.456-4.092 8.432-3.951 10.691.252l16.031 29.818c3.046 5.664 11.458 4.655 13.077-1.569l7.119-27.379c1.196-4.602 6.939-6.164 10.302-2.801l6.399 6.399c3.264 3.264 8.729 2.578 11.085-1.392l7.278-12.263a6.145 6.145 0 0 1 4.657-2.971 590.152 590.152 0 0 0 48.104-6.975c21.295-3.98 40.323-14.408 54.972-29.246z" fill="#a5490c"/><path d="M284.954 48.85a572.999 572.999 0 0 0-57.908 0C121.787 54.174 44.33 150.122 63.048 253.839a296.819 296.819 0 0 0 3.508 16.673c9.611 40.004 41.861 70.799 82.3 78.368 71.43 13.369 142.859 13.369 214.29 0 40.44-7.569 72.689-38.364 82.3-78.368a298.09 298.09 0 0 0 3.508-16.673c18.716-103.717-58.741-199.665-164-204.989z" fill="#bc5410"/><path d="M256 358.914c-35.715 0-71.429-3.344-107.144-10.031-40.438-7.565-72.694-38.358-82.296-78.367a296.283 296.283 0 0 1-3.511-16.677C44.335 150.123 121.783 54.18 227.046 48.851c8.861-.439 17.721-.69 26.593-.721a250.6 250.6 0 0 0-16.572.721C168.24 54.18 117.593 150.123 129.829 253.839a433.507 433.507 0 0 0 2.299 16.677c6.28 40.009 27.366 70.802 53.812 78.367 23.353 6.687 46.707 10.031 70.06 10.031z" fill="#a5490c"/><path d="M303.483 359.117c-31.655 4.992-63.31 4.992-94.966 0-19.669-3.102-35.52-19.763-38.561-41.374a86.264 86.264 0 0 1 0-24.167c3.041-21.61 18.892-38.271 38.561-41.374 31.65-4.991 63.301-4.993 94.951-.002 20.089 3.167 35.95 20.499 38.742 42.62a86.291 86.291 0 0 1-.166 22.923c-3.04 21.61-18.892 38.271-38.561 41.374z" fill="#e6e6e6"/><path d="M229.449 359.116c8.296 2.33 16.593 3.584 24.889 3.73a305.094 305.094 0 0 1-45.819-3.73c-19.675-3.103-35.527-19.769-38.567-41.378a86.725 86.725 0 0 1 0-24.168c3.041-21.608 18.892-38.275 38.567-41.367a303.912 303.912 0 0 1 45.829-3.741c-8.296.146-16.603 1.4-24.9 3.741-11.003 3.093-19.863 19.759-21.567 41.367a155.496 155.496 0 0 0 0 24.168c1.705 21.608 10.565 38.274 21.568 41.378z" fill="#ccc"/><path d="M291.246 270.638c0 12.774-15.78 30.473-35.245 30.473-19.465 0-35.245-17.7-35.245-30.473 0-12.774 15.78-15.786 35.245-15.786s35.245 3.011 35.245 15.786z" fill="#0f0f0e"/><circle cx="273.763" cy="269.343" r="9.404" fill="#807272"/><g fill="#91420e"><path d="M339.071 256.281c-13.828 0-25.078-11.249-25.078-25.078 0-11.319 7.628-21.275 18.55-24.213a25.171 25.171 0 0 1 6.527-.864c13.828 0 25.078 11.249 25.078 25.078 0 2.194-.29 4.389-.864 6.523-2.936 10.926-12.893 18.554-24.213 18.554zM172.929 256.281c-13.828 0-25.078-11.249-25.078-25.078 0-11.319 7.628-21.275 18.55-24.213a25.171 25.171 0 0 1 6.527-.864c13.828 0 25.078 11.249 25.078 25.078 0 2.194-.29 4.389-.864 6.523-2.938 10.926-12.895 18.554-24.213 18.554z"/></g><g fill="#0f0f0e"><path d="M352.655 225.979c0 1.223-.167 2.414-.47 3.542-1.557 5.789-6.834 10.041-13.113 10.041-7.502 0-13.584-6.081-13.584-13.584 0-6.28 4.253-11.557 10.041-13.113 1.128-.303 2.32-.47 3.542-.47 7.503 0 13.584 6.082 13.584 13.584z"/><circle cx="172.931" cy="225.98" r="13.584"/></g><g fill="#e6e6e6"><path d="M352.655 225.979c0 1.223-.167 2.414-.47 3.542a12.536 12.536 0 0 1-5.277 1.16c-6.928 0-12.539-5.611-12.539-12.539 0-1.881.418-3.678 1.16-5.277 1.128-.303 2.32-.47 3.542-.47 7.503 0 13.584 6.082 13.584 13.584zM186.512 225.979c0 1.223-.167 2.414-.47 3.542a12.536 12.536 0 0 1-5.277 1.16c-6.928 0-12.539-5.611-12.539-12.539 0-1.881.418-3.678 1.16-5.277 1.128-.303 2.32-.47 3.542-.47 7.503 0 13.584 6.082 13.584 13.584z"/></g><g fill="#bc5410"><path d="M99.541 379.98c2.834-4.355 9.692-2.907 10.326 2.251 1.17 9.539-8.215 22.913-19.569 27.238-11.782 4.488 1.859-18.141 9.243-29.489zM102.938 413.358c1.875-4.846 8.885-4.843 10.568.072 3.113 9.093-3.312 24.115-13.529 30.689-10.604 6.823-1.924-18.134 2.961-30.761z"/></g></svg>